<?xml version="1.0" encoding="UTF-8" standalone="no"?>
<svg width="160px" height="160px" viewBox="0 0 160 160" version="1.1" xmlns="http://www.w3.org/2000/svg" xmlns:xlink="http://www.w3.org/1999/xlink">
    <!-- Generator: Sketch 40.3 (33839) - http://www.bohemiancoding.com/sketch -->
    <title>logo</title>
    <desc>Created with Sketch.</desc>
    <defs>
        <rect id="path-1" x="0" y="0" width="160" height="160" rx="8"></rect>
        <mask id="mask-2" maskContentUnits="userSpaceOnUse" maskUnits="objectBoundingBox" x="0" y="0" width="160" height="160" fill="white">
            <use xlink:href="#path-1"></use>
        </mask>
    </defs>
    <g id="Page-1" stroke="none" stroke-width="1" fill="none" fill-rule="evenodd">
        <g id="Rectangle">
            <use fill-opacity="0" fill="#9B9B9B" fill-rule="evenodd" style="mix-blend-mode: color-dodge;" xlink:href="#path-1"></use>
            <use stroke="#000000" mask="url(#mask-2)" stroke-width="10" xlink:href="#path-1"></use>
        </g>
        <path d="M103.504,110.096 C103.504,107.08 101.88,105.572 98.864,105.572 C96.544,105.572 95.036,106.616 94.456,108.704 C89.7,111.256 84.712,112.532 79.492,112.532 C74.852,112.532 71.72,111.488 70.096,109.284 C68.356,107.196 67.544,103.02 67.544,96.988 C67.544,85.388 71.488,67.524 79.492,43.396 C80.072,41.772 80.42,40.38 80.42,39.336 C80.42,36.32 78.912,34.812 75.896,34.812 C73.576,34.812 71.604,36.668 70.096,40.264 C67.312,46.644 64.644,56.388 61.86,69.38 C59.192,82.14 57.916,91.42 57.916,97.22 C57.916,114.388 64.992,122.856 79.26,122.856 C89.004,122.856 96.312,120.536 101.184,115.78 C102.692,114.156 103.504,112.3 103.504,110.096 L103.504,110.096 Z" id="L" fill="#000000"></path>
        <path d="M114.48,100.44 C114.48,99.8 114.08,99.24 113.36,98.76 C112.56,98.36 111.84,98.12 111.04,98.12 C110.88,98.12 110.56,98.2 110.16,98.28 C109.68,98.44 109.28,98.68 108.8,98.92 C107.36,99.88 105.76,100.68 103.92,101.32 C102,102.12 100.08,102.44 98.16,102.44 C94.96,102.44 92.64,101.48 91.04,99.56 C89.44,97.64 88.56,95.32 88.4,92.44 C89.44,93 90.64,93.48 92,93.8 C93.28,94.2 94.8,94.36 96.56,94.36 C98.8,94.36 100.96,94.12 103.2,93.48 C105.28,92.84 107.2,92.04 108.88,90.92 C110.48,89.96 111.84,88.76 112.88,87.4 C113.84,86.12 114.4,84.68 114.4,83.16 C114.4,80.92 113.68,79 112.32,77.32 C110.88,75.72 109.04,74.44 106.88,73.32 C105.04,72.52 103.12,71.88 101.12,71.4 C99.04,71 96.96,70.76 94.96,70.76 C92.8,70.76 90.8,71.4 88.96,72.68 C87.04,74.04 85.36,75.72 83.92,77.8 C82.48,79.88 81.28,82.12 80.48,84.68 C79.6,87.24 79.2,89.72 79.2,92.2 C79.2,94.12 79.52,96.04 80.16,97.88 C80.8,99.8 81.76,101.48 83.2,102.92 C84.64,104.36 86.48,105.56 88.72,106.44 C90.96,107.32 93.68,107.8 96.96,107.8 C98.72,107.8 100.64,107.64 102.72,107.4 C104.72,107.08 106.56,106.6 108.32,105.96 C110.08,105.4 111.52,104.68 112.72,103.72 C113.84,102.76 114.48,101.72 114.48,100.44 L114.48,100.44 Z M106.8,83.4 C106.8,84.2 106.48,84.92 105.92,85.56 C105.28,86.28 104.56,86.92 103.6,87.4 C102.64,87.88 101.52,88.28 100.32,88.6 C99.04,88.92 97.84,89.08 96.56,89.08 C94.4,89.08 92.72,88.76 91.6,88.04 C90.4,87.4 89.6,86.52 89.2,85.56 C89.84,83.16 90.96,81.16 92.4,79.56 C93.84,77.96 95.44,77.08 97.36,77.08 C98.4,77.08 99.52,77.24 100.64,77.48 C101.76,77.8 102.72,78.2 103.68,78.68 C104.56,79.24 105.28,79.88 105.92,80.68 C106.48,81.48 106.8,82.36 106.8,83.4 L106.8,83.4 Z" id="e" fill="#000000"></path>
    </g>
</svg>