<?xml version="1.0" encoding="UTF-8" standalone="no"?>
<svg width="320px" height="320px" viewBox="0 0 320 320" version="1.1" xmlns="http://www.w3.org/2000/svg" xmlns:xlink="http://www.w3.org/1999/xlink">
    <!-- Generator: Sketch 40.3 (33839) - http://www.bohemiancoding.com/sketch -->
    <title>logo-blue</title>
    <desc>Created with Sketch.</desc>
    <defs>
        <rect id="path-1" x="0" y="0" width="320" height="320" rx="8"></rect>
        <mask id="mask-2" maskContentUnits="userSpaceOnUse" maskUnits="objectBoundingBox" x="0" y="0" width="320" height="320" fill="white">
            <use xlink:href="#path-1"></use>
        </mask>
    </defs>
    <g id="Page-1" stroke="none" stroke-width="1" fill="none" fill-rule="evenodd">
        <g id="Rectangle">
            <use fill-opacity="0" fill="#9B9B9B" fill-rule="evenodd" style="mix-blend-mode: color-dodge;" xlink:href="#path-1"></use>
            <use stroke="#007196" mask="url(#mask-2)" stroke-width="24" xlink:href="#path-1"></use>
        </g>
        <path d="M202.855519,223.341557 C202.855519,217.198444 199.547689,214.126887 193.404576,214.126887 C188.679104,214.126887 185.607547,216.25335 184.426179,220.506274 C174.738962,225.704293 164.579198,228.303302 153.946887,228.303302 C144.495944,228.303302 138.116557,226.17684 134.808726,221.687642 C131.264623,217.434717 129.610708,208.928868 129.610708,196.642642 C129.610708,173.015283 137.64401,136.629151 153.946887,87.4842453 C155.128255,84.1764151 155.837076,81.3411321 155.837076,79.2146698 C155.837076,73.0715566 152.765519,70 146.622406,70 C141.896934,70 137.880283,73.7803774 134.808726,81.1048585 C129.13816,94.0999057 123.703868,113.946887 118.033302,140.409529 C112.599009,166.399623 110,185.30151 110,197.115189 C110,232.08368 124.412689,249.331651 153.47434,249.331651 C173.321321,249.331651 188.206557,244.60618 198.130047,234.918963 C201.201604,231.611133 202.855519,227.830755 202.855519,223.341557 L202.855519,223.341557 Z" id="L" fill="#007196"></path>
        <path d="M228.11992,200.989774 C228.11992,199.717757 227.324909,198.604743 225.893891,197.65073 C224.30387,196.85572 222.872851,196.378713 221.28283,196.378713 C220.964826,196.378713 220.328818,196.537715 219.533807,196.696718 C218.579795,197.014722 217.784784,197.491728 216.830772,197.968734 C213.968734,199.876759 210.788693,201.46678 207.131645,202.738797 C203.315595,204.328818 199.499544,204.964826 195.683494,204.964826 C189.323411,204.964826 184.71235,203.056801 181.532309,199.240751 C178.352267,195.424701 176.603244,190.81364 176.28524,185.089565 C178.352267,186.20258 180.737298,187.156592 183.440334,187.792601 C185.984367,188.587611 189.005407,188.905615 192.503453,188.905615 C196.955511,188.905615 201.248567,188.428609 205.700626,187.156592 C209.83468,185.884576 213.65073,184.294555 216.989774,182.068526 C220.169816,180.160501 222.872851,177.775469 224.939878,175.072434 C226.847903,172.528401 227.960918,169.666363 227.960918,166.645323 C227.960918,162.193265 226.529899,158.377215 223.826864,155.038171 C220.964826,151.858129 217.307778,149.314096 213.014722,147.088067 C209.357674,145.498046 205.541624,144.226029 201.566572,143.272017 C197.432517,142.477006 193.298463,142 189.323411,142 C185.030355,142 181.055302,143.272017 177.398254,145.81605 C173.582204,148.519086 170.243161,151.858129 167.381123,155.992184 C164.519086,160.126238 162.134054,164.578296 160.544033,169.666363 C158.79501,174.75443 158,179.683494 158,184.612559 C158,188.428609 158.636008,192.244659 159.908025,195.901707 C161.180042,199.717757 163.088067,203.056801 165.950104,205.918839 C168.812142,208.780876 172.46919,211.165907 176.921248,212.91493 C181.373307,214.663953 186.779378,215.617966 193.298463,215.617966 C196.796509,215.617966 200.612559,215.299962 204.746613,214.822955 C208.721665,214.186947 212.378713,213.232935 215.876759,211.960918 C219.374805,210.847903 222.236843,209.416884 224.621874,207.508859 C226.847903,205.600834 228.11992,203.533807 228.11992,200.989774 L228.11992,200.989774 Z M212.85572,167.12233 C212.85572,168.71235 212.219711,170.143369 211.106697,171.415386 C209.83468,172.846405 208.403661,174.118421 206.495636,175.072434 C204.587611,176.026446 202.361582,176.821457 199.976551,177.457465 C197.432517,178.093474 195.047486,178.411478 192.503453,178.411478 C188.210396,178.411478 184.871353,177.775469 182.645323,176.344451 C180.260292,175.072434 178.670271,173.323411 177.875261,171.415386 C179.147277,166.645323 181.373307,162.670271 184.235344,159.490229 C187.097382,156.310188 190.277423,154.561165 194.093474,154.561165 C196.160501,154.561165 198.38653,154.879169 200.612559,155.356175 C202.838588,155.992184 204.746613,156.787194 206.654638,157.741207 C208.403661,158.854221 209.83468,160.126238 211.106697,161.716259 C212.219711,163.30628 212.85572,165.055302 212.85572,167.12233 L212.85572,167.12233 Z" id="e" fill="#007196"></path>
    </g>
</svg>
