<svg width="512" height="512" viewBox="0 0 512 512" fill="none" xmlns="http://www.w3.org/2000/svg">
<path d="M237.202 372.867C244.402 371.533 259.335 368.467 282.002 363.667L312.802 357.267C316.269 360.733 319.202 363.8 321.602 366.467C324.002 369.133 325.202 371.4 325.202 373.267C325.202 375.4 324.136 377.533 322.002 379.667C319.869 381.8 315.602 385.267 309.202 390.067C308.402 390.6 307.469 391.533 306.402 392.867C305.602 394.2 304.669 395 303.602 395.267L292.802 398.067C283.736 400.733 275.602 402.733 268.402 404.067C261.469 405.667 254.402 406.467 247.202 406.467C221.602 406.467 200.669 398.867 184.402 383.667C178.269 378.067 173.469 372.467 170.002 366.867C166.802 361 165.202 354.733 165.202 348.067C165.202 345.133 165.335 343 165.602 341.667C169.869 315.267 174.669 292.867 180.002 274.467C185.602 254.2 195.735 219.8 210.402 171.267C213.602 159.8 218.669 142.6 225.602 119.667C227.469 113.533 230.002 109.267 233.202 106.867C236.669 104.467 241.602 103.533 248.002 104.067C249.336 104.067 250.536 104.2 251.602 104.467C252.936 104.733 254.269 104.867 255.602 104.867C272.136 106.2 280.402 114.2 280.402 128.867C280.402 132.6 279.869 136.467 278.802 140.467C276.669 149 272.669 160.467 266.802 174.867C245.202 229.8 228.535 282.733 216.802 333.667C215.202 340.067 214.402 346.733 214.402 353.667C214.402 366.733 220.135 373.267 231.602 373.267C234.002 373.267 235.869 373.133 237.202 372.867Z" fill="#007196"/>
<path d="M317.623 396.8C307.916 396.8 300.263 393.533 294.663 387C289.25 380.28 286.543 370.947 286.543 359C286.543 345 290.09 330.347 297.183 315.04C304.463 299.547 313.61 286.667 324.623 276.4C335.823 265.947 347.023 260.72 358.223 260.72C364.383 260.72 369.236 262.493 372.783 266.04C376.516 269.587 378.383 274.72 378.383 281.44C378.383 289.84 375.676 298.52 370.263 307.48C364.85 316.253 357.383 324.467 347.863 332.12C338.53 339.587 327.983 345.653 316.223 350.32C316.783 363.2 322.476 369.64 333.303 369.64C339.276 369.64 344.876 367.773 350.103 364.04C355.516 360.307 360.276 355.267 364.383 348.92C365.316 347.24 366.156 346.027 366.903 345.28C367.65 344.347 368.396 343.88 369.143 343.88C370.263 343.88 371.01 344.253 371.383 345C371.756 345.747 371.943 347.053 371.943 348.92C371.943 354.893 369.236 361.707 363.823 369.36C358.596 377.013 351.783 383.547 343.383 388.96C334.983 394.187 326.396 396.8 317.623 396.8ZM323.223 327.36C327.33 327.36 331.53 325.96 335.823 323.16C340.116 320.173 343.663 316.347 346.463 311.68C349.263 307.013 350.663 301.973 350.663 296.56C350.663 289.84 347.956 286.48 342.543 286.48C336.756 286.48 331.53 290.12 326.863 297.4C322.196 304.68 319.21 314.387 317.903 326.52C319.023 327.08 320.796 327.36 323.223 327.36Z" fill="#007196"/>
</svg>
